# Blender v2.76 (sub 0) OBJ File: 'CoordinateSystem.blend'
# www.blender.org
mtllib orientationaxes.mtl
o xcylinder
v -0.015044 0.000000 -0.023569
v 0.803228 0.000000 -0.023569
v -0.015044 -0.004598 -0.023116
v 0.803228 -0.004598 -0.023116
v -0.015044 -0.009020 -0.021775
v 0.803228 -0.009019 -0.021775
v -0.015044 -0.013094 -0.019597
v 0.803228 -0.013094 -0.019597
v -0.015044 -0.016666 -0.016666
v 0.803228 -0.016666 -0.016666
v -0.015044 -0.019597 -0.013094
v 0.803228 -0.019597 -0.013094
v -0.015044 -0.021775 -0.009020
v 0.803228 -0.021775 -0.009020
v -0.015044 -0.023116 -0.004598
v 0.803228 -0.023116 -0.004598
v -0.015044 -0.023569 -0.000000
v 0.803228 -0.023569 -0.000000
v -0.015044 -0.023116 0.004598
v 0.803228 -0.023116 0.004598
v -0.015044 -0.021775 0.009020
v 0.803228 -0.021775 0.009020
v -0.015044 -0.019597 0.013094
v 0.803228 -0.019597 0.013094
v -0.015044 -0.016666 0.016666
v 0.803228 -0.016666 0.016666
v -0.015044 -0.013094 0.019597
v 0.803228 -0.013094 0.019597
v -0.015044 -0.009020 0.021775
v 0.803228 -0.009019 0.021775
v -0.015044 -0.004598 0.023116
v 0.803228 -0.004598 0.023116
v -0.015044 0.000000 0.023569
v 0.803228 0.000000 0.023569
v -0.015044 0.004598 0.023116
v 0.803228 0.004598 0.023116
v -0.015044 0.009020 0.021775
v 0.803228 0.009020 0.021775
v -0.015044 0.013094 0.019597
v 0.803228 0.013094 0.019597
v -0.015044 0.016666 0.016666
v 0.803228 0.016666 0.016666
v -0.015044 0.019597 0.013094
v 0.803228 0.019597 0.013094
v -0.015044 0.021775 0.009020
v 0.803228 0.021775 0.009020
v -0.015044 0.023116 0.004598
v 0.803228 0.023116 0.004598
v -0.015044 0.023569 -0.000000
v 0.803228 0.023569 -0.000000
v -0.015044 0.023116 -0.004598
v 0.803228 0.023116 -0.004598
v -0.015044 0.021775 -0.009020
v 0.803228 0.021775 -0.009020
v -0.015044 0.019597 -0.013094
v 0.803228 0.019597 -0.013094
v -0.015044 0.016666 -0.016666
v 0.803228 0.016666 -0.016666
v -0.015044 0.013094 -0.019597
v 0.803228 0.013094 -0.019597
v -0.015044 0.009020 -0.021775
v 0.803228 0.009020 -0.021775
v -0.015044 0.004598 -0.023116
v 0.803228 0.004598 -0.023116
vn 0.000000 -0.098000 -0.995200
vn 0.000000 -0.290300 -0.956900
vn 0.000000 -0.471400 -0.881900
vn 0.000000 -0.634400 -0.773000
vn 0.000000 -0.773000 -0.634400
vn 0.000000 -0.881900 -0.471400
vn 0.000000 -0.956900 -0.290300
vn 0.000000 -0.995200 -0.098000
vn 0.000000 -0.995200 0.098000
vn 0.000000 -0.956900 0.290300
vn 0.000000 -0.881900 0.471400
vn 0.000000 -0.773000 0.634400
vn 0.000000 -0.634400 0.773000
vn 0.000000 -0.471400 0.881900
vn 0.000000 -0.290300 0.956900
vn 0.000000 -0.098000 0.995200
vn -0.000000 0.098000 0.995200
vn -0.000000 0.290300 0.956900
vn -0.000000 0.471400 0.881900
vn -0.000000 0.634400 0.773000
vn -0.000000 0.773000 0.634400
vn -0.000000 0.881900 0.471400
vn -0.000000 0.956900 0.290300
vn -0.000000 0.995200 0.098000
vn -0.000000 0.995200 -0.098000
vn -0.000000 0.956900 -0.290300
vn -0.000000 0.881900 -0.471400
vn -0.000000 0.773000 -0.634400
vn -0.000000 0.634400 -0.773000
vn -0.000000 0.471400 -0.881900
vn 1.000000 -0.000000 0.000000
vn -0.000000 0.098000 -0.995200
vn -0.000000 0.290300 -0.956900
vn -1.000000 0.000000 0.000000
usemtl Red
s off
f 1//1 2//1 4//1 3//1
f 3//2 4//2 6//2 5//2
f 5//3 6//3 8//3 7//3
f 7//4 8//4 10//4 9//4
f 9//5 10//5 12//5 11//5
f 11//6 12//6 14//6 13//6
f 13//7 14//7 16//7 15//7
f 15//8 16//8 18//8 17//8
f 17//9 18//9 20//9 19//9
f 19//10 20//10 22//10 21//10
f 21//11 22//11 24//11 23//11
f 23//12 24//12 26//12 25//12
f 25//13 26//13 28//13 27//13
f 27//14 28//14 30//14 29//14
f 29//15 30//15 32//15 31//15
f 31//16 32//16 34//16 33//16
f 33//17 34//17 36//17 35//17
f 35//18 36//18 38//18 37//18
f 37//19 38//19 40//19 39//19
f 39//20 40//20 42//20 41//20
f 41//21 42//21 44//21 43//21
f 43//22 44//22 46//22 45//22
f 45//23 46//23 48//23 47//23
f 47//24 48//24 50//24 49//24
f 49//25 50//25 52//25 51//25
f 51//26 52//26 54//26 53//26
f 53//27 54//27 56//27 55//27
f 55//28 56//28 58//28 57//28
f 57//29 58//29 60//29 59//29
f 59//30 60//30 62//30 61//30
f 4//31 2//31 64//31 62//31 60//31 58//31 56//31 54//31 52//31 50//31 48//31 46//31 44//31 42//31 40//31 38//31 36//31 34//31 32//31 30//31 28//31 26//31 24//31 22//31 20//31 18//31 16//31 14//31 12//31 10//31 8//31 6//31
f 63//32 64//32 2//32 1//32
f 61//33 62//33 64//33 63//33
f 1//34 3//34 5//34 7//34 9//34 11//34 13//34 15//34 17//34 19//34 21//34 23//34 25//34 27//34 29//34 31//34 33//34 35//34 37//34 39//34 41//34 43//34 45//34 47//34 49//34 51//34 53//34 55//34 57//34 59//34 61//34 63//34
o xcone
v 0.767161 0.000000 -0.064121
v 0.767161 -0.012509 -0.062889
v 0.767161 -0.024538 -0.059240
v 0.767161 -0.035624 -0.053315
v 0.767161 -0.045341 -0.045341
v 0.767161 -0.053315 -0.035624
v 0.767161 -0.059240 -0.024538
v 0.767161 -0.062889 -0.012509
v 0.767161 -0.064121 -0.000000
v 1.003433 0.000000 0.000000
v 0.767161 -0.062889 0.012509
v 0.767161 -0.059240 0.024538
v 0.767161 -0.053315 0.035624
v 0.767161 -0.045341 0.045341
v 0.767161 -0.035624 0.053315
v 0.767161 -0.024538 0.059240
v 0.767161 -0.012509 0.062889
v 0.767161 0.000000 0.064121
v 0.767161 0.012510 0.062889
v 0.767161 0.024538 0.059240
v 0.767161 0.035624 0.053315
v 0.767161 0.045341 0.045341
v 0.767161 0.053315 0.035624
v 0.767161 0.059241 0.024538
v 0.767161 0.062889 0.012509
v 0.767161 0.064122 -0.000000
v 0.767161 0.062889 -0.012510
v 0.767161 0.059241 -0.024538
v 0.767161 0.053315 -0.035624
v 0.767161 0.045341 -0.045341
v 0.767161 0.035624 -0.053315
v 0.767161 0.024538 -0.059241
v 0.767161 0.012509 -0.062889
vn 0.260700 0.280200 -0.923800
vn 0.260700 -0.094600 -0.960800
vn 0.260700 0.455100 -0.851400
vn 0.260700 0.612400 -0.746300
vn 0.260700 0.746300 -0.612500
vn 0.260700 0.851400 -0.455100
vn 0.260700 0.923800 -0.280200
vn 0.260700 0.960800 -0.094600
vn 0.260700 0.960800 0.094600
vn 0.260700 0.923800 0.280200
vn 0.260700 0.851400 0.455100
vn 0.260700 0.746300 0.612400
vn 0.260700 0.612400 0.746300
vn 0.260700 0.455100 0.851400
vn 0.260700 0.280200 0.923800
vn 0.260700 0.094600 0.960800
vn 0.260700 -0.094600 0.960800
vn 0.260700 -0.280200 0.923800
vn 0.260700 -0.455100 0.851400
vn 0.260700 -0.612400 0.746300
vn 0.260700 -0.746300 0.612400
vn 0.260700 -0.851400 0.455100
vn 0.260700 -0.923800 0.280200
vn 0.260700 -0.960800 0.094600
vn 0.260700 -0.960800 -0.094600
vn 0.260700 -0.923800 -0.280200
vn 0.260700 -0.851400 -0.455100
vn 0.260700 -0.746300 -0.612400
vn 0.260700 -0.612500 -0.746300
vn 0.260700 -0.455100 -0.851400
vn 0.260700 0.094600 -0.960800
vn 0.260700 -0.280200 -0.923800
vn -1.000000 -0.000000 0.000000
usemtl Red
s off
f 96//35 74//35 97//35
f 65//36 74//36 66//36
f 95//37 74//37 96//37
f 94//38 74//38 95//38
f 93//39 74//39 94//39
f 92//40 74//40 93//40
f 91//41 74//41 92//41
f 90//42 74//42 91//42
f 89//43 74//43 90//43
f 88//44 74//44 89//44
f 87//45 74//45 88//45
f 86//46 74//46 87//46
f 85//47 74//47 86//47
f 84//48 74//48 85//48
f 83//49 74//49 84//49
f 82//50 74//50 83//50
f 81//51 74//51 82//51
f 80//52 74//52 81//52
f 79//53 74//53 80//53
f 78//54 74//54 79//54
f 77//55 74//55 78//55
f 76//56 74//56 77//56
f 75//57 74//57 76//57
f 73//58 74//58 75//58
f 72//59 74//59 73//59
f 71//60 74//60 72//60
f 70//61 74//61 71//61
f 69//62 74//62 70//62
f 68//63 74//63 69//63
f 67//64 74//64 68//64
f 97//65 74//65 65//65
f 66//66 74//66 67//66
f 65//67 66//67 67//67 68//67 69//67 70//67 71//67 72//67 73//67 75//67 76//67 77//67 78//67 79//67 80//67 81//67 82//67 83//67 84//67 85//67 86//67 87//67 88//67 89//67 90//67 91//67 92//67 93//67 94//67 95//67 96//67 97//67
o ycylinder
v 0.000000 -0.024000 0.014908
v 0.000000 -0.024000 -0.803092
v 0.004682 -0.023539 0.014908
v 0.004682 -0.023539 -0.803092
v 0.009184 -0.022173 0.014908
v 0.009184 -0.022173 -0.803092
v 0.013334 -0.019955 0.014908
v 0.013334 -0.019955 -0.803092
v 0.016971 -0.016971 0.014908
v 0.016971 -0.016971 -0.803092
v 0.019955 -0.013334 0.014908
v 0.019955 -0.013334 -0.803092
v 0.022173 -0.009184 0.014908
v 0.022173 -0.009184 -0.803092
v 0.023539 -0.004682 0.014908
v 0.023539 -0.004682 -0.803092
v 0.024000 -0.000000 0.014908
v 0.024000 -0.000000 -0.803092
v 0.023539 0.004682 0.014908
v 0.023539 0.004682 -0.803092
v 0.022173 0.009184 0.014908
v 0.022173 0.009184 -0.803092
v 0.019955 0.013334 0.014908
v 0.019955 0.013334 -0.803092
v 0.016971 0.016971 0.014908
v 0.016971 0.016971 -0.803092
v 0.013334 0.019955 0.014908
v 0.013334 0.019955 -0.803092
v 0.009184 0.022173 0.014908
v 0.009184 0.022173 -0.803092
v 0.004682 0.023539 0.014908
v 0.004682 0.023539 -0.803092
v -0.000000 0.024000 0.014908
v -0.000000 0.024000 -0.803092
v -0.004682 0.023539 0.014908
v -0.004682 0.023539 -0.803092
v -0.009184 0.022173 0.014908
v -0.009184 0.022173 -0.803092
v -0.013334 0.019955 0.014908
v -0.013334 0.019955 -0.803092
v -0.016971 0.016971 0.014908
v -0.016971 0.016971 -0.803092
v -0.019955 0.013334 0.014908
v -0.019955 0.013334 -0.803092
v -0.022173 0.009184 0.014908
v -0.022173 0.009184 -0.803092
v -0.023539 0.004682 0.014908
v -0.023539 0.004682 -0.803092
v -0.024000 -0.000000 0.014908
v -0.024000 -0.000000 -0.803092
v -0.023539 -0.004682 0.014908
v -0.023539 -0.004682 -0.803092
v -0.022173 -0.009184 0.014908
v -0.022173 -0.009184 -0.803092
v -0.019955 -0.013334 0.014908
v -0.019955 -0.013334 -0.803092
v -0.016971 -0.016971 0.014908
v -0.016971 -0.016971 -0.803092
v -0.013334 -0.019955 0.014908
v -0.013334 -0.019955 -0.803092
v -0.009184 -0.022173 0.014908
v -0.009184 -0.022173 -0.803092
v -0.004682 -0.023539 0.014908
v -0.004682 -0.023539 -0.803092
vn 0.098000 -0.995200 0.000000
vn 0.290300 -0.956900 0.000000
vn 0.471400 -0.881900 0.000000
vn 0.634400 -0.773000 0.000000
vn 0.773000 -0.634400 0.000000
vn 0.881900 -0.471400 0.000000
vn 0.956900 -0.290300 0.000000
vn 0.995200 -0.098000 0.000000
vn 0.995200 0.098000 -0.000000
vn 0.956900 0.290300 -0.000000
vn 0.881900 0.471400 -0.000000
vn 0.773000 0.634400 -0.000000
vn 0.634400 0.773000 -0.000000
vn 0.471400 0.881900 -0.000000
vn 0.290300 0.956900 -0.000000
vn 0.098000 0.995200 -0.000000
vn -0.098000 0.995200 -0.000000
vn -0.290300 0.956900 -0.000000
vn -0.471400 0.881900 -0.000000
vn -0.634400 0.773000 -0.000000
vn -0.773000 0.634400 -0.000000
vn -0.881900 0.471400 -0.000000
vn -0.956900 0.290300 -0.000000
vn -0.995200 0.098000 -0.000000
vn -0.995200 -0.098000 0.000000
vn -0.956900 -0.290300 0.000000
vn -0.881900 -0.471400 0.000000
vn -0.773000 -0.634400 0.000000
vn -0.634400 -0.773000 0.000000
vn -0.471400 -0.881900 0.000000
vn -0.000000 0.000000 -1.000000
vn -0.098000 -0.995200 0.000000
vn -0.290300 -0.956900 0.000000
vn -0.000000 0.000000 1.000000
usemtl Green
s off
f 98//68 99//68 101//68 100//68
f 100//69 101//69 103//69 102//69
f 102//70 103//70 105//70 104//70
f 104//71 105//71 107//71 106//71
f 106//72 107//72 109//72 108//72
f 108//73 109//73 111//73 110//73
f 110//74 111//74 113//74 112//74
f 112//75 113//75 115//75 114//75
f 114//76 115//76 117//76 116//76
f 116//77 117//77 119//77 118//77
f 118//78 119//78 121//78 120//78
f 120//79 121//79 123//79 122//79
f 122//80 123//80 125//80 124//80
f 124//81 125//81 127//81 126//81
f 126//82 127//82 129//82 128//82
f 128//83 129//83 131//83 130//83
f 130//84 131//84 133//84 132//84
f 132//85 133//85 135//85 134//85
f 134//86 135//86 137//86 136//86
f 136//87 137//87 139//87 138//87
f 138//88 139//88 141//88 140//88
f 140//89 141//89 143//89 142//89
f 142//90 143//90 145//90 144//90
f 144//91 145//91 147//91 146//91
f 146//92 147//92 149//92 148//92
f 148//93 149//93 151//93 150//93
f 150//94 151//94 153//94 152//94
f 152//95 153//95 155//95 154//95
f 154//96 155//96 157//96 156//96
f 156//97 157//97 159//97 158//97
f 101//98 99//98 161//98 159//98 157//98 155//98 153//98 151//98 149//98 147//98 145//98 143//98 141//98 139//98 137//98 135//98 133//98 131//98 129//98 127//98 125//98 123//98 121//98 119//98 117//98 115//98 113//98 111//98 109//98 107//98 105//98 103//98
f 160//99 161//99 99//99 98//99
f 158//100 159//100 161//100 160//100
f 98//101 100//101 102//101 104//101 106//101 108//101 110//101 112//101 114//101 116//101 118//101 120//101 122//101 124//101 126//101 128//101 130//101 132//101 134//101 136//101 138//101 140//101 142//101 144//101 146//101 148//101 150//101 152//101 154//101 156//101 158//101 160//101
o ycone
v 0.000000 -0.064000 -0.791981
v 0.012486 -0.062770 -0.791981
v 0.024492 -0.059128 -0.791981
v 0.035556 -0.053214 -0.791981
v 0.045255 -0.045255 -0.791981
v 0.053214 -0.035557 -0.791981
v 0.059128 -0.024492 -0.791981
v 0.062770 -0.012486 -0.791981
v 0.064000 -0.000000 -0.791981
v 0.000000 -0.000000 -1.027981
v 0.062770 0.012486 -0.791981
v 0.059128 0.024492 -0.791981
v 0.053214 0.035556 -0.791981
v 0.045255 0.045255 -0.791981
v 0.035556 0.053214 -0.791981
v 0.024492 0.059128 -0.791981
v 0.012486 0.062770 -0.791981
v -0.000000 0.064000 -0.791981
v -0.012486 0.062770 -0.791981
v -0.024492 0.059128 -0.791981
v -0.035557 0.053214 -0.791981
v -0.045255 0.045255 -0.791981
v -0.053214 0.035556 -0.791981
v -0.059128 0.024492 -0.791981
v -0.062770 0.012486 -0.791981
v -0.064000 -0.000000 -0.791981
v -0.062770 -0.012486 -0.791981
v -0.059128 -0.024492 -0.791981
v -0.053214 -0.035557 -0.791981
v -0.045255 -0.045255 -0.791981
v -0.035556 -0.053214 -0.791981
v -0.024492 -0.059128 -0.791981
v -0.012486 -0.062770 -0.791981
vn -0.280300 -0.923900 -0.260600
vn 0.094600 -0.960800 -0.260600
vn -0.455100 -0.851500 -0.260600
vn -0.612500 -0.746300 -0.260600
vn -0.746300 -0.612500 -0.260600
vn -0.851500 -0.455100 -0.260600
vn -0.923900 -0.280300 -0.260600
vn -0.960800 -0.094600 -0.260600
vn -0.960800 0.094600 -0.260600
vn -0.923900 0.280300 -0.260600
vn -0.851500 0.455100 -0.260600
vn -0.746300 0.612500 -0.260600
vn -0.612500 0.746300 -0.260600
vn -0.455100 0.851500 -0.260600
vn -0.280300 0.923900 -0.260600
vn -0.094600 0.960800 -0.260600
vn 0.094600 0.960800 -0.260600
vn 0.280300 0.923900 -0.260600
vn 0.455100 0.851500 -0.260600
vn 0.612500 0.746300 -0.260600
vn 0.746300 0.612500 -0.260600
vn 0.851500 0.455100 -0.260600
vn 0.923900 0.280300 -0.260600
vn 0.960800 0.094600 -0.260600
vn 0.960800 -0.094600 -0.260600
vn 0.923900 -0.280300 -0.260600
vn 0.851500 -0.455100 -0.260600
vn 0.746300 -0.612500 -0.260600
vn 0.612500 -0.746300 -0.260600
vn 0.455100 -0.851500 -0.260600
vn -0.094600 -0.960800 -0.260600
vn 0.280300 -0.923900 -0.260600
vn -0.000000 0.000000 1.000000
usemtl Green
s off
f 193//102 171//102 194//102
f 162//103 171//103 163//103
f 192//104 171//104 193//104
f 191//105 171//105 192//105
f 190//106 171//106 191//106
f 189//107 171//107 190//107
f 188//108 171//108 189//108
f 187//109 171//109 188//109
f 186//110 171//110 187//110
f 185//111 171//111 186//111
f 184//112 171//112 185//112
f 183//113 171//113 184//113
f 182//114 171//114 183//114
f 181//115 171//115 182//115
f 180//116 171//116 181//116
f 179//117 171//117 180//117
f 178//118 171//118 179//118
f 177//119 171//119 178//119
f 176//120 171//120 177//120
f 175//121 171//121 176//121
f 174//122 171//122 175//122
f 173//123 171//123 174//123
f 172//124 171//124 173//124
f 170//125 171//125 172//125
f 169//126 171//126 170//126
f 168//127 171//127 169//127
f 167//128 171//128 168//128
f 166//129 171//129 167//129
f 165//130 171//130 166//130
f 164//131 171//131 165//131
f 194//132 171//132 162//132
f 163//133 171//133 164//133
f 162//134 163//134 164//134 165//134 166//134 167//134 168//134 169//134 170//134 172//134 173//134 174//134 175//134 176//134 177//134 178//134 179//134 180//134 181//134 182//134 183//134 184//134 185//134 186//134 187//134 188//134 189//134 190//134 191//134 192//134 193//134 194//134
o zcone
v 0.000000 0.767585 -0.064000
v 0.012486 0.767585 -0.062770
v 0.024492 0.767585 -0.059128
v 0.035556 0.767585 -0.053214
v 0.045255 0.767585 -0.045255
v 0.053214 0.767585 -0.035556
v 0.059128 0.767585 -0.024492
v 0.062770 0.767585 -0.012486
v 0.064000 0.767585 -0.000000
v 0.000000 1.003585 0.000000
v 0.062770 0.767585 0.012486
v 0.059128 0.767585 0.024492
v 0.053214 0.767585 0.035556
v 0.045255 0.767585 0.045255
v 0.035556 0.767585 0.053214
v 0.024492 0.767585 0.059128
v 0.012486 0.767585 0.062770
v -0.000000 0.767585 0.064000
v -0.012486 0.767585 0.062770
v -0.024492 0.767585 0.059128
v -0.035557 0.767585 0.053214
v -0.045255 0.767585 0.045255
v -0.053214 0.767585 0.035556
v -0.059128 0.767585 0.024492
v -0.062770 0.767585 0.012486
v -0.064000 0.767585 -0.000000
v -0.062770 0.767585 -0.012486
v -0.059128 0.767585 -0.024492
v -0.053214 0.767585 -0.035557
v -0.045255 0.767585 -0.045255
v -0.035556 0.767585 -0.053214
v -0.024492 0.767585 -0.059128
v -0.012486 0.767585 -0.062770
vn -0.280300 0.260600 -0.923900
vn 0.094600 0.260600 -0.960800
vn -0.455100 0.260600 -0.851500
vn -0.612500 0.260600 -0.746300
vn -0.746300 0.260600 -0.612500
vn -0.851500 0.260600 -0.455100
vn -0.923900 0.260600 -0.280300
vn -0.960800 0.260600 -0.094600
vn -0.960800 0.260600 0.094600
vn -0.923900 0.260600 0.280300
vn -0.851500 0.260600 0.455100
vn -0.746300 0.260600 0.612500
vn -0.612500 0.260600 0.746300
vn -0.455100 0.260600 0.851500
vn -0.280300 0.260600 0.923900
vn -0.094600 0.260600 0.960800
vn 0.094600 0.260600 0.960800
vn 0.280300 0.260600 0.923900
vn 0.455100 0.260600 0.851500
vn 0.612500 0.260600 0.746300
vn 0.746300 0.260600 0.612500
vn 0.851500 0.260600 0.455100
vn 0.923900 0.260600 0.280300
vn 0.960800 0.260600 0.094600
vn 0.960800 0.260600 -0.094600
vn 0.923900 0.260600 -0.280300
vn 0.851500 0.260600 -0.455100
vn 0.746300 0.260600 -0.612500
vn 0.612500 0.260600 -0.746300
vn 0.455100 0.260600 -0.851500
vn -0.094600 0.260600 -0.960800
vn 0.280300 0.260600 -0.923900
vn 0.000000 -1.000000 0.000000
usemtl Blue
s off
f 226//135 204//135 227//135
f 195//136 204//136 196//136
f 225//137 204//137 226//137
f 224//138 204//138 225//138
f 223//139 204//139 224//139
f 222//140 204//140 223//140
f 221//141 204//141 222//141
f 220//142 204//142 221//142
f 219//143 204//143 220//143
f 218//144 204//144 219//144
f 217//145 204//145 218//145
f 216//146 204//146 217//146
f 215//147 204//147 216//147
f 214//148 204//148 215//148
f 213//149 204//149 214//149
f 212//150 204//150 213//150
f 211//151 204//151 212//151
f 210//152 204//152 211//152
f 209//153 204//153 210//153
f 208//154 204//154 209//154
f 207//155 204//155 208//155
f 206//156 204//156 207//156
f 205//157 204//157 206//157
f 203//158 204//158 205//158
f 202//159 204//159 203//159
f 201//160 204//160 202//160
f 200//161 204//161 201//161
f 199//162 204//162 200//162
f 198//163 204//163 199//163
f 197//164 204//164 198//164
f 227//165 204//165 195//165
f 196//166 204//166 197//166
f 195//167 196//167 197//167 198//167 199//167 200//167 201//167 202//167 203//167 205//167 206//167 207//167 208//167 209//167 210//167 211//167 212//167 213//167 214//167 215//167 216//167 217//167 218//167 219//167 220//167 221//167 222//167 223//167 224//167 225//167 226//167 227//167
o zcylinder
v 0.000000 -0.014908 -0.024000
v 0.000000 0.803092 -0.024000
v 0.004682 -0.014908 -0.023539
v 0.004682 0.803092 -0.023539
v 0.009184 -0.014908 -0.022173
v 0.009184 0.803092 -0.022173
v 0.013334 -0.014908 -0.019955
v 0.013334 0.803092 -0.019955
v 0.016971 -0.014908 -0.016971
v 0.016971 0.803092 -0.016971
v 0.019955 -0.014908 -0.013334
v 0.019955 0.803092 -0.013334
v 0.022173 -0.014908 -0.009184
v 0.022173 0.803092 -0.009184
v 0.023539 -0.014908 -0.004682
v 0.023539 0.803092 -0.004682
v 0.024000 -0.014908 -0.000000
v 0.024000 0.803092 -0.000000
v 0.023539 -0.014908 0.004682
v 0.023539 0.803092 0.004682
v 0.022173 -0.014908 0.009184
v 0.022173 0.803092 0.009184
v 0.019955 -0.014908 0.013334
v 0.019955 0.803092 0.013334
v 0.016971 -0.014908 0.016971
v 0.016971 0.803092 0.016971
v 0.013334 -0.014908 0.019955
v 0.013334 0.803092 0.019955
v 0.009184 -0.014908 0.022173
v 0.009184 0.803092 0.022173
v 0.004682 -0.014908 0.023539
v 0.004682 0.803092 0.023539
v -0.000000 -0.014908 0.024000
v -0.000000 0.803092 0.024000
v -0.004682 -0.014908 0.023539
v -0.004682 0.803092 0.023539
v -0.009184 -0.014908 0.022173
v -0.009184 0.803092 0.022173
v -0.013334 -0.014908 0.019955
v -0.013334 0.803092 0.019955
v -0.016971 -0.014908 0.016971
v -0.016971 0.803092 0.016971
v -0.019955 -0.014908 0.013334
v -0.019955 0.803092 0.013334
v -0.022173 -0.014908 0.009184
v -0.022173 0.803092 0.009184
v -0.023539 -0.014908 0.004682
v -0.023539 0.803092 0.004682
v -0.024000 -0.014908 -0.000000
v -0.024000 0.803092 -0.000000
v -0.023539 -0.014908 -0.004682
v -0.023539 0.803092 -0.004682
v -0.022173 -0.014908 -0.009184
v -0.022173 0.803092 -0.009184
v -0.019955 -0.014908 -0.013334
v -0.019955 0.803092 -0.013334
v -0.016971 -0.014908 -0.016971
v -0.016971 0.803092 -0.016971
v -0.013334 -0.014908 -0.019955
v -0.013334 0.803092 -0.019955
v -0.009184 -0.014908 -0.022173
v -0.009184 0.803092 -0.022173
v -0.004682 -0.014908 -0.023539
v -0.004682 0.803092 -0.023539
vn 0.098000 0.000000 -0.995200
vn 0.290300 0.000000 -0.956900
vn 0.471400 0.000000 -0.881900
vn 0.634400 0.000000 -0.773000
vn 0.773000 0.000000 -0.634400
vn 0.881900 0.000000 -0.471400
vn 0.956900 0.000000 -0.290300
vn 0.995200 0.000000 -0.098000
vn 0.995200 0.000000 0.098000
vn 0.956900 0.000000 0.290300
vn 0.881900 0.000000 0.471400
vn 0.773000 0.000000 0.634400
vn 0.634400 0.000000 0.773000
vn 0.471400 0.000000 0.881900
vn 0.290300 0.000000 0.956900
vn 0.098000 0.000000 0.995200
vn -0.098000 0.000000 0.995200
vn -0.290300 0.000000 0.956900
vn -0.471400 0.000000 0.881900
vn -0.634400 0.000000 0.773000
vn -0.773000 0.000000 0.634400
vn -0.881900 0.000000 0.471400
vn -0.956900 0.000000 0.290300
vn -0.995200 0.000000 0.098000
vn -0.995200 0.000000 -0.098000
vn -0.956900 0.000000 -0.290300
vn -0.881900 0.000000 -0.471400
vn -0.773000 0.000000 -0.634400
vn -0.634400 0.000000 -0.773000
vn -0.471400 0.000000 -0.881900
vn 0.000000 1.000000 0.000000
vn -0.098000 0.000000 -0.995200
vn -0.290300 0.000000 -0.956900
vn 0.000000 -1.000000 -0.000000
usemtl Blue
s off
f 228//168 229//168 231//168 230//168
f 230//169 231//169 233//169 232//169
f 232//170 233//170 235//170 234//170
f 234//171 235//171 237//171 236//171
f 236//172 237//172 239//172 238//172
f 238//173 239//173 241//173 240//173
f 240//174 241//174 243//174 242//174
f 242//175 243//175 245//175 244//175
f 244//176 245//176 247//176 246//176
f 246//177 247//177 249//177 248//177
f 248//178 249//178 251//178 250//178
f 250//179 251//179 253//179 252//179
f 252//180 253//180 255//180 254//180
f 254//181 255//181 257//181 256//181
f 256//182 257//182 259//182 258//182
f 258//183 259//183 261//183 260//183
f 260//184 261//184 263//184 262//184
f 262//185 263//185 265//185 264//185
f 264//186 265//186 267//186 266//186
f 266//187 267//187 269//187 268//187
f 268//188 269//188 271//188 270//188
f 270//189 271//189 273//189 272//189
f 272//190 273//190 275//190 274//190
f 274//191 275//191 277//191 276//191
f 276//192 277//192 279//192 278//192
f 278//193 279//193 281//193 280//193
f 280//194 281//194 283//194 282//194
f 282//195 283//195 285//195 284//195
f 284//196 285//196 287//196 286//196
f 286//197 287//197 289//197 288//197
f 231//198 229//198 291//198 289//198 287//198 285//198 283//198 281//198 279//198 277//198 275//198 273//198 271//198 269//198 267//198 265//198 263//198 261//198 259//198 257//198 255//198 253//198 251//198 249//198 247//198 245//198 243//198 241//198 239//198 237//198 235//198 233//198
f 290//199 291//199 229//199 228//199
f 288//200 289//200 291//200 290//200
f 228//201 230//201 232//201 234//201 236//201 238//201 240//201 242//201 244//201 246//201 248//201 250//201 252//201 254//201 256//201 258//201 260//201 262//201 264//201 266//201 268//201 270//201 272//201 274//201 276//201 278//201 280//201 282//201 284//201 286//201 288//201 290//201
